<?xml version="1.0" standalone="no"?>
<!DOCTYPE svg PUBLIC "-//W3C//DTD SVG 1.1//EN" "http://www.w3.org/Graphics/SVG/1.1/DTD/svg11.dtd" >
<svg xmlns="http://www.w3.org/2000/svg">
<metadata></metadata>
<defs>
<font id="colaborate-boldregular" horiz-adv-x="1159" >
<font-face units-per-em="2048" ascent="1638" descent="-410" />
<missing-glyph horiz-adv-x="579" />
<glyph horiz-adv-x="2048" />
<glyph horiz-adv-x="2048" />
<glyph unicode="&#xd;" horiz-adv-x="2048" />
<glyph unicode=" "  horiz-adv-x="579" />
<glyph unicode="&#x09;" horiz-adv-x="579" />
<glyph unicode="&#xa0;" horiz-adv-x="579" />
<glyph unicode="!" horiz-adv-x="579" d="M145 0v252h287v-252h-287zM152 385v940h276v-940h-276z" />
<glyph unicode="&#x22;" horiz-adv-x="579" d="M150 1325h239l-16 -444h-207zM473 1325h236l-17 -444h-203z" />
<glyph unicode="#" d="M37 330v188h223l45 273h-188v188h225l59 346h226l-60 -346h138l59 346h225l-59 -346h194v-188h-231l-45 -273h196v-188h-231l-57 -330h-226l58 330h-135l-60 -330h-225l57 330h-188zM485 518h136l47 273h-136z" />
<glyph unicode="$" d="M72 981q0 82 31 147.5t86 109t122.5 71t147.5 39.5v180h211v-176q189 -16 311 -58l-94 -260q-140 61 -217 76v-326q52 -20 89.5 -37.5t84 -44.5t78 -59.5t60 -75t42.5 -99t14 -124.5q0 -93 -26 -161.5t-77 -110.5t-115 -65.5t-150 -35.5v-172h-211v160q-143 2 -377 66 l94 260q16 -6 66 -26t76 -29t67 -19.5t74 -11.5v362q-51 20 -80 32.5t-75.5 36t-74 44t-61.5 53.5t-52 68t-31 83t-13 103zM377 981q0 -63 88 -113v232q-88 -29 -88 -119zM664 223q69 32 69 117q0 64 -69 123v-240z" />
<glyph unicode="%" horiz-adv-x="1794" d="M78 1001q0 179 78 266t235 87q166 0 241 -86.5t75 -266.5q0 -183 -76 -275.5t-242 -92.5q-165 0 -238 91.5t-73 276.5zM274 1001q0 -130 21.5 -178.5t93.5 -48.5q67 0 93 54t26 173q0 121 -24.5 166t-92.5 45q-71 0 -94 -49.5t-23 -161.5zM401 0l742 1288h235l-743 -1288 h-234zM1092 340q0 179 77.5 265.5t235.5 86.5q166 0 238.5 -85.5t72.5 -266.5q0 -184 -73.5 -276.5t-239.5 -92.5q-165 0 -238 92t-73 277zM1288 340q0 -130 21.5 -178.5t93.5 -48.5q67 0 93 54t26 173q0 121 -24.5 166t-92.5 45q-71 0 -94 -49.5t-23 -161.5z" />
<glyph unicode="&#x26;" d="M94 379q0 268 211 377q-2 2 -24.5 19.5t-32 26t-31 28.5t-32.5 37t-24.5 40.5t-19.5 50.5t-6 56q0 72 23 133t69.5 109.5t125.5 76t182 27.5q190 0 294.5 -89t104.5 -255q0 -47 -28 -93t-66.5 -79.5t-96.5 -68t-98 -54t-92 -41.5q-100 -43 -136 -113.5t-36 -183.5 q0 -39 8 -73t27 -65.5t55.5 -50t87.5 -18.5q16 0 31 3.5t26.5 7t26 13.5t22 15t23 20.5l20.5 20.5t21.5 24t20.5 23v117h-164v196h442v-329q0 -50 20 -162t21 -125h-266l-37 84q-33 -43 -110.5 -81t-129.5 -38q-64 0 -121.5 11t-116 39.5t-100 74t-68 119.5t-26.5 170z M412 1016q0 -19 5.5 -37t16.5 -35t19 -27t23.5 -26.5t19.5 -20.5q36 17 58 29t48.5 30.5t39.5 40.5t13 48q0 53 -27 92t-98 39q-60 0 -89 -37.5t-29 -95.5z" />
<glyph unicode="'" horiz-adv-x="579" d="M170 1325h240l-17 -444h-207z" />
<glyph unicode="(" horiz-adv-x="686" d="M111 520q0 184 23 321.5t64 240.5t119 243h256q-108 -199 -147 -371t-39 -434q0 -229 39.5 -397.5t157.5 -384.5h-256q-128 222 -172.5 385t-44.5 397z" />
<glyph unicode=")" horiz-adv-x="686" d="M113 -262q118 215 157 383.5t39 398.5q0 262 -39 434t-147 371h254q78 -141 119 -243.5t64.5 -240t23.5 -321.5q0 -234 -44.5 -397t-172.5 -385h-254z" />
<glyph unicode="*" horiz-adv-x="921" d="M16 948l54 162l313 -115l20 17l-14 321h158l-12 -327l18 -13l309 113l41 -160l-313 -74l-2 -22l205 -270l-131 -93l-179 279h-24l-187 -283l-131 103l209 264l-8 22z" />
<glyph unicode="+" d="M123 356v207h342v326h229v-326h342v-207h-342v-356h-229v356h-342z" />
<glyph unicode="," horiz-adv-x="579" d="M57 -211l88 365h289l-166 -365h-211z" />
<glyph unicode="-" horiz-adv-x="741" d="M53 328v229h635v-229h-635z" />
<glyph unicode="." horiz-adv-x="579" d="M145 0v254h289v-254h-289z" />
<glyph unicode="/" horiz-adv-x="661" d="M-2 -23l436 1369h230l-431 -1369h-235z" />
<glyph unicode="0" d="M78 631q0 330 120 486.5t380 156.5q140 0 237 -39.5t155.5 -121.5t84.5 -199.5t26 -282.5q0 -167 -26 -287.5t-84.5 -207.5t-157 -130t-238.5 -43q-139 0 -235.5 42t-154 129t-82.5 207.5t-25 289.5zM389 631q0 -83 1.5 -134t8 -106.5t18.5 -87t32.5 -59t51.5 -38.5 t74 -11q48 0 83 19.5t56.5 54t34 91t17 120t4.5 151.5q0 93 -3.5 153t-15 114t-32.5 82.5t-55.5 45t-85.5 16.5q-38 0 -66.5 -10.5t-48.5 -28t-34 -48t-21.5 -60.5t-12 -77.5t-5.5 -87t-1 -99.5z" />
<glyph unicode="1" d="M236 997l331 246h303v-1245h-311v958l-231 -178z" />
<glyph unicode="2" d="M109 254q63 40 100 63.5t112 74.5t123.5 88.5t110.5 90.5t99 96t63 90.5t26 86.5q0 61 -14.5 102.5t-41.5 61.5t-55 28t-63 8q-129 0 -325 -106l-88 252q177 58 243 72t174 14q73 0 137 -11t128.5 -40.5t110.5 -75.5t75 -122t29 -175q0 -71 -35.5 -149t-91 -145.5 t-127 -132.5t-139.5 -113t-132 -83h549v-229h-884z" />
<glyph unicode="3" d="M86 18l90 252q25 -17 135 -46t199 -29q99 0 148 52t49 115q0 36 -9.5 63t-24.5 45.5t-43.5 31.5t-55.5 20t-72.5 11t-84 5t-98.5 1v229h37q43 0 68.5 0.5t59 1.5t52.5 4t42.5 8t36 12.5t26.5 18t20 25t10.5 33.5t4.5 42q0 63 -41.5 97t-116.5 34q-123 0 -319 -96l-90 252 q63 31 198.5 53.5t222.5 22.5q457 0 457 -358q0 -78 -42 -136.5t-104 -87.5t-139 -39q46 -7 88 -21t84.5 -38.5t73.5 -56t50.5 -78t19.5 -101.5q0 -92 -32 -163.5t-83 -114.5t-120.5 -70.5t-137 -38t-141.5 -10.5q-258 0 -418 55z" />
<glyph unicode="4" d="M14 557l557 686h347v-686h196v-233h-196v-324h-308v324h-495zM268 557h342v416z" />
<glyph unicode="5" d="M90 14l88 252q71 -29 171.5 -50t172.5 -21q73 0 121 19t69.5 54t28.5 67.5t7 76.5q0 99 -42 133.5t-118 34.5q-40 0 -72.5 -4.5t-62 -16.5t-42.5 -17.5t-43 -25t-34 -22.5l-193 71v678h863v-231h-555v-219q23 11 51.5 16t47 5.5t64.5 0.5q96 0 174.5 -23t139.5 -70.5 t95 -127.5t34 -186q0 -105 -44 -191t-119 -140.5t-170.5 -84t-201.5 -29.5q-108 0 -230 12.5t-200 38.5z" />
<glyph unicode="6" d="M92 580q0 102 19 198.5t62.5 188t108.5 159.5t163.5 109t220.5 41q60 0 157 -12t158 -29l-88 -252q-115 61 -217 61q-69 0 -122 -22.5t-84 -56.5t-51 -80.5t-27 -88t-7 -85.5q20 38 55.5 65t73 39t64.5 16.5t45 4.5q442 0 442 -467q0 -93 -40.5 -171t-107 -128.5 t-150.5 -78.5t-173 -28q-502 0 -502 617zM403 477q0 -73 10.5 -125.5t27 -82t43 -47t52 -22.5t60.5 -5q67 0 112.5 41t45.5 133q0 6 1 25.5t1 33.5q0 176 -158 176q-83 0 -127 -32.5t-68 -94.5z" />
<glyph unicode="7" d="M119 1014v227h809l94 -190l-428 -1051h-328l477 1014h-624z" />
<glyph unicode="8" d="M80 324q0 136 75.5 219.5t221.5 111.5q-4 2 -14 5q-24 8 -38 13.5t-42.5 19t-47 26.5t-41.5 35t-37 46t-24 57t-10 71q0 165 116 256.5t349 91.5q170 0 273 -39t146.5 -113.5t43.5 -193.5q0 -67 -29.5 -120.5t-75 -84.5t-86 -48.5t-76.5 -23.5q149 -34 223 -110.5 t74 -218.5q0 -100 -35.5 -171t-104 -112t-157.5 -59.5t-206 -18.5q-92 0 -166 11t-137 37t-105.5 66.5t-66 103t-23.5 143.5zM383 332q0 -58 44 -98.5t151 -40.5q198 0 198 139q0 86 -48.5 133t-143.5 80q-41 -15 -67 -26.5t-54.5 -29.5t-44 -38t-25.5 -50.5t-10 -68.5z M424 915q0 -29 10.5 -52.5t22 -37t38.5 -28.5t39.5 -20t45.5 -17q32 12 50 19.5t44 22t39.5 29t24 36.5t10.5 48q0 19 -1 30.5t-5 29.5t-14.5 28.5t-27.5 22t-45.5 16.5t-66.5 5q-55 0 -89.5 -10t-50 -31t-20 -41t-4.5 -50z" />
<glyph unicode="9" d="M96 868q0 92 42.5 171t110.5 129.5t151 79t167 28.5q123 0 214.5 -36t145 -93t86 -141t43.5 -165.5t11 -181.5q0 -102 -18.5 -198.5t-62 -188t-107.5 -159.5t-162.5 -109t-220.5 -41q-60 0 -159 12t-159 29l88 252q115 -61 219 -61q69 0 122 22.5t83.5 56.5t50.5 80.5 t26.5 88t6.5 85.5q-20 -38 -55 -65t-73 -39t-64.5 -16.5t-44.5 -4.5q-441 0 -441 465zM403 813q0 -178 160 -178q83 0 126 32.5t67 94.5q0 90 -14.5 149t-43 86.5t-59 37t-74.5 9.5q-67 0 -113 -42t-46 -134q0 -5 -1.5 -23.5t-1.5 -31.5z" />
<glyph unicode=":" horiz-adv-x="579" d="M145 0v254h289v-254h-289zM145 672v254h289v-254h-289z" />
<glyph unicode=";" horiz-adv-x="579" d="M57 -211l90 365h287l-166 -365h-211zM147 672v254h289v-254h-289z" />
<glyph unicode="&#x3c;" d="M102 373v286l955 285v-264l-676 -164l676 -160v-264z" />
<glyph unicode="=" d="M102 113v204h955v-204h-955zM102 467v205h955v-205h-955z" />
<glyph unicode="&#x3e;" d="M102 92v264l676 164l-676 160v264l955 -278v-289z" />
<glyph unicode="?" horiz-adv-x="993" d="M104 1284q65 23 189 42.5t199 19.5q36 0 65 -1.5t70.5 -6.5t74 -16t69 -27.5t63.5 -44t49.5 -63t34.5 -86.5t12 -112q0 -57 -25.5 -107t-63.5 -83.5t-82 -68t-82 -62.5t-63.5 -66t-25.5 -78v-151h-275v162q0 57 17.5 104.5t45.5 80.5t62 61t68 51.5t62 46t45.5 50.5 t17.5 60q0 62 -28 89.5t-111 27.5q-62 0 -180.5 -23t-170.5 -49zM307 0v252h287v-252h-287z" />
<glyph unicode="@" horiz-adv-x="1904" d="M162 655q0 147 45 265t123.5 198t188 134t234.5 78t267 24q90 0 181 -15.5t191 -56.5t176 -103t125.5 -165.5t49.5 -233.5q0 -103 -27.5 -185.5t-78 -138.5t-114.5 -95.5t-144.5 -61.5t-159.5 -31.5t-168 -9.5q-252 0 -377 103t-125 301q0 83 23.5 150.5t73.5 122 t139 84.5t210 30q63 0 140 -10t106 -19v-272l27 -5l73 -198l-352 -25v307q-4 2 -7.5 5t-5.5 4.5t-5 1.5h-19q-131 0 -131 -179q0 -200 205 -200h29q85 0 130 2.5t108 19t93.5 49t54 94.5t23.5 154q0 361 -444 361q-42 0 -76 -1.5t-98 -11.5t-113 -27.5t-107 -54t-96 -86 t-64 -127.5t-26 -176q0 -77 15.5 -141.5t40.5 -111t63 -83.5t74.5 -60.5t85.5 -40.5t86 -25t85 -13t73 -5.5t59 -0.5h10q156 0 438 62l97 -230q-265 -47 -541 -47q-149 0 -277 25t-237 79t-186 134t-120.5 197t-43.5 261z" />
<glyph unicode="A" horiz-adv-x="1443" d="M55 0l539 1325h295l500 -1325h-345l-106 334h-438l-111 -334h-334zM586 569h272l-131 420z" />
<glyph unicode="B" horiz-adv-x="1325" d="M188 0v1325h523q76 0 140 -11t121.5 -38.5t97.5 -69t63.5 -106.5t23.5 -148q0 -100 -58 -167t-153 -91q127 -12 200 -88t73 -213q0 -88 -24 -157t-65 -112.5t-98.5 -72t-119.5 -40t-134 -11.5h-590zM500 240h266q54 0 94.5 38.5t40.5 114.5q0 86 -43.5 128t-114.5 42 h-243v-323zM500 801h239q48 0 75.5 39.5t27.5 109.5q0 15 -2.5 30t-11 35t-22 34.5t-38 25t-57.5 10.5h-211v-284z" />
<glyph unicode="C" horiz-adv-x="1210" d="M117 662q0 115 19.5 214t66.5 188.5t119 152.5t184.5 100t255.5 37q86 0 187.5 -15.5t176.5 -40.5l-94 -260q-62 27 -90.5 38t-81 24.5t-98.5 13.5q-170 0 -247 -109t-77 -341q0 -246 72 -355.5t240 -109.5q33 0 63 4t62.5 14.5t52.5 18t60.5 25t58.5 24.5l94 -260 q-188 -66 -385 -66q-138 0 -245.5 32.5t-181.5 92t-121.5 147.5t-69 194t-21.5 237z" />
<glyph unicode="D" horiz-adv-x="1423" d="M188 0v1325h486q159 0 274 -34.5t197 -111.5t122 -204t40 -307q0 -184 -38 -312t-118 -206.5t-196 -114t-281 -35.5h-486zM500 240h192q53 0 90 6.5t78 31.5t66.5 69.5t42 125t16.5 193.5q0 68 -7 124.5t-16.5 97.5t-28 73t-34 52.5t-41.5 35t-43.5 21.5t-48 10.5 t-46.5 4t-46 0.5h-174v-845z" />
<glyph unicode="E" horiz-adv-x="1234" d="M188 0v1325h813v-240h-501v-280h458v-240h-458v-325h520v-240h-832z" />
<glyph unicode="F" horiz-adv-x="1103" d="M188 0v1325h813v-242h-501v-286h477v-238h-477v-559h-312z" />
<glyph unicode="G" horiz-adv-x="1337" d="M117 664q0 156 38.5 280.5t116.5 217t204.5 142.5t295.5 50q64 0 166.5 -17.5t181.5 -38.5l-94 -260q-4 2 -33 15t-37 16t-33 13t-38 13.5t-34.5 9t-39.5 7.5t-37 2q-59 0 -104.5 -9.5t-91 -38.5t-75 -77t-47.5 -130.5t-18 -194.5q0 -246 71.5 -355.5t250.5 -109.5 q75 0 109.5 6t74.5 31v260h-293v239h570v-655q-107 -66 -209 -93.5t-258 -27.5q-107 0 -196 20.5t-153.5 56.5t-115 88t-82.5 112t-52.5 132t-29 144t-8.5 152z" />
<glyph unicode="H" horiz-adv-x="1462" d="M188 0v1325h312v-520h463v520h311v-1325h-311v563h-463v-563h-312z" />
<glyph unicode="I" horiz-adv-x="638" d="M164 0v1325h311v-1325h-311z" />
<glyph unicode="J" horiz-adv-x="952" d="M25 0q16 3 49 9q143 27 207 58q153 76 170 275q2 27 2 55v928h311v-907q0 -75 -13.5 -142t-34.5 -119.5t-56.5 -99.5t-71 -81.5t-86 -66.5t-92.5 -53.5t-101 -43.5t-101.5 -35.5t-101.5 -30.5z" />
<glyph unicode="K" horiz-adv-x="1421" d="M188 0v1325h312v-537l442 537h352l-503 -620l604 -705h-402l-493 586v-586h-312z" />
<glyph unicode="L" horiz-adv-x="1034" d="M188 0v1325h312v-1079h524v-246h-836z" />
<glyph unicode="M" horiz-adv-x="1980" d="M188 0v1325h523l286 -911l297 911h502v-1325h-309v993l-334 -993h-334l-332 993v-993h-299z" />
<glyph unicode="N" horiz-adv-x="1542" d="M188 0v1325h467l392 -956v956h307v-1325h-471l-396 956v-956h-299z" />
<glyph unicode="O" horiz-adv-x="1529" d="M117 657q0 120 21 221.5t70 190.5t123 151.5t186 98t253 35.5q173 0 298.5 -50t200 -144.5t109.5 -219t35 -283.5q0 -122 -20.5 -224t-68.5 -191t-121 -151t-183.5 -97t-251.5 -35q-145 0 -257.5 35t-186 95.5t-120.5 150t-67 191.5t-20 226zM438 657q0 -137 21 -228 t65.5 -140.5t102 -69.5t141.5 -20q168 0 246 108t78 350q0 104 -14.5 182.5t-41 130.5t-67 84.5t-89.5 46t-112 13.5q-81 0 -140 -23t-103 -75.5t-65.5 -141.5t-21.5 -217z" />
<glyph unicode="P" horiz-adv-x="1273" d="M188 0v1325h506q107 0 190 -20t151 -65t104.5 -126.5t36.5 -195.5q0 -420 -459 -420h-217v-498h-312zM500 737h200q31 0 57.5 9t50.5 29t38 56.5t14 86.5q0 40 -7 70.5t-22.5 48t-29.5 28t-37.5 14.5t-36.5 5t-37 1h-190v-348z" />
<glyph unicode="Q" horiz-adv-x="1529" d="M117 657q0 120 21 221.5t69 190.5t122 151.5t186 98t255 35.5q173 0 298.5 -50t200 -144.5t109.5 -219t35 -283.5q0 -122 -20.5 -224t-68.5 -191t-121 -151t-183.5 -97t-251.5 -35q-145 0 -257.5 35t-186 95.5t-120.5 150t-67 191.5t-20 226zM438 657q0 -137 21 -228 t65.5 -140.5t102 -69.5t141.5 -20q168 0 246 108t78 350q0 104 -14.5 182.5t-41 130.5t-67 84.5t-89.5 46t-112 13.5q-81 0 -140 -23t-103 -75.5t-65.5 -141.5t-21.5 -217zM668 -262l104 170l477 -45l-104 -197z" />
<glyph unicode="R" horiz-adv-x="1372" d="M188 0v1325h537q70 0 130 -9t123 -35.5t107 -69t72.5 -115t28.5 -168.5q0 -67 -15.5 -125.5t-49.5 -112t-94.5 -92.5t-143.5 -57l403 -541h-383l-385 530h-18v-530h-312zM500 770h237q61 0 97 44t36 114q0 71 -32.5 114t-102.5 43h-235v-315z" />
<glyph unicode="S" horiz-adv-x="1261" d="M127 25l94 260q5 -2 33 -12.5l36 -13.5t34 -12.5t38 -13t35.5 -10.5t39 -10t36 -7t38.5 -5.5t36 -1.5q70 0 115 5t83.5 19.5t56 43t17.5 73.5q0 41 -23.5 73.5t-63.5 56t-92 45t-109.5 43t-115 45.5t-109.5 58.5t-92 77t-63.5 104.5t-23.5 138q0 78 32 141.5t84.5 106 t122 71.5t142.5 41.5t149 12.5q73 0 183.5 -17t187.5 -43l-94 -260q-11 5 -44.5 20.5t-52 22.5t-50 17.5t-64 15t-68.5 4.5q-68 0 -114.5 -14.5t-66 -38t-26 -42t-6.5 -38.5q0 -38 30 -68t78.5 -49.5t111 -43t127 -46t127 -60t111 -84t78.5 -120.5t30 -166q0 -70 -17 -126 t-46 -95.5t-73 -69t-92.5 -47.5t-111 -28.5t-121 -14.5t-129.5 -4q-81 0 -203 20.5t-215 45.5z" />
<glyph unicode="T" horiz-adv-x="1095" d="M41 1083v242h1014v-242h-350v-1083h-314v1083h-350z" />
<glyph unicode="U" horiz-adv-x="1525" d="M188 489v836h312v-815q0 -67 11 -119t32.5 -85t46.5 -55t58.5 -33t62.5 -15t65 -4q109 0 179.5 73.5t70.5 237.5v815h311v-840q0 -260 -147 -393t-414 -133q-291 0 -439.5 132.5t-148.5 397.5z" />
<glyph unicode="V" horiz-adv-x="1384" d="M55 1325h344l308 -950l288 950h334l-485 -1325h-289z" />
<glyph unicode="W" horiz-adv-x="2070" d="M68 1325h329l191 -954l280 899h394l215 -897l219 952h307l-334 -1325h-391l-240 862l-295 -862h-391z" />
<glyph unicode="X" horiz-adv-x="1349" d="M59 0l443 684l-389 641h358l213 -369l229 369h334l-403 -633l434 -692h-367l-243 434l-275 -434h-334z" />
<glyph unicode="Y" horiz-adv-x="1327" d="M27 1325h354l289 -463l291 463h339l-487 -729v-596h-311v588z" />
<glyph unicode="Z" horiz-adv-x="1171" d="M86 250l664 833h-588v242h846l77 -250l-659 -833h643v-242h-905z" />
<glyph unicode="[" horiz-adv-x="657" d="M170 -260v1644h391v-194h-162v-1249h162v-201h-391z" />
<glyph unicode="\" horiz-adv-x="661" d="M-2 1346h229l437 -1369h-236z" />
<glyph unicode="]" horiz-adv-x="657" d="M125 -59h162v1247h-162v194h391v-1644h-391v203z" />
<glyph unicode="^" d="M61 551l371 774h285l379 -774h-252l-266 592l-271 -592h-246z" />
<glyph unicode="_" horiz-adv-x="1024" d="M-2 -39h1028v-213h-1028v213z" />
<glyph unicode="`" horiz-adv-x="544" d="M39 1325h270l197 -240h-184z" />
<glyph unicode="a" horiz-adv-x="1112" d="M84 246q0 60 15.5 110t53 95.5t95.5 77.5t149 50.5t207 18.5h72v31q0 19 -1 30.5t-6.5 31t-16 30.5t-32 20t-51.5 9q-182 0 -354 -82l-96 229q201 68 469 68q169 0 269.5 -75.5t100.5 -223.5v-379q0 -42 18.5 -148t22.5 -139h-268q-1 0 -21 48l-16 38q-3 -2 -18.5 -14.5 t-21.5 -17t-22.5 -16.5t-26 -17.5t-25.5 -15t-29 -14t-28.5 -10t-31 -8t-30.5 -2.5q-377 0 -377 275zM375 258q0 -24 12.5 -39.5t37 -22t44.5 -8.5t49 -2q68 0 160 103v108h-45q-136 0 -197 -34.5t-61 -104.5z" />
<glyph unicode="b" horiz-adv-x="1128" d="M104 0q3 23 10 71.5t9.5 71t5 62.5t2.5 82v1059h281v-525q50 67 106.5 105.5t132.5 38.5q83 0 149.5 -26.5t111.5 -72t75 -108.5t43.5 -134t13.5 -151q0 -102 -28 -192t-81 -159.5t-136.5 -110t-186.5 -40.5q-79 0 -132 37t-74 78l-41 -86h-261zM408 332 q61 -146 155 -146q195 0 195 283q0 70 -9.5 121.5t-24.5 81.5t-38 48t-45.5 24t-50.5 6q-18 0 -34.5 -6t-33.5 -22.5t-28 -27.5t-30 -41.5t-26.5 -43t-29.5 -50.5v-227z" />
<glyph unicode="c" horiz-adv-x="976" d="M84 461q0 233 127 368.5t367 135.5q59 0 163 -23t160 -45l-96 -229q-55 27 -79.5 39t-71.5 27.5t-79 15.5q-52 0 -87 -11.5t-63 -42.5t-41 -89t-13 -146q0 -275 202 -275q82 0 242 82l96 -229q-51 -25 -166 -46.5t-174 -21.5q-232 0 -359.5 134.5t-127.5 355.5z" />
<glyph unicode="d" horiz-adv-x="1128" d="M84 473q0 100 23 186.5t69 156t122 109.5t175 40q136 0 244 -144v525h280v-1059q0 -42 2.5 -82t5 -62.5t9.5 -71t10 -71.5h-260l-41 86q-21 -40 -74.5 -77.5t-132.5 -37.5q-95 0 -169.5 27t-123 72.5t-80.5 110.5t-45.5 137t-13.5 155zM371 469q0 -73 9.5 -124.5t25 -82 t41.5 -48t52.5 -23t65.5 -5.5q95 0 156 146v227q-64 107 -88 135q-48 55 -96 56q-37 0 -63.5 -10t-51.5 -38t-38 -86.5t-13 -146.5z" />
<glyph unicode="e" horiz-adv-x="1107" d="M84 459q0 70 13 136.5t46 135t84 119.5t134 83t188 32q133 0 223.5 -35.5t145.5 -113t78.5 -190.5t23.5 -278h-643q34 -170 203 -170q128 0 288 80l93 -213q-167 -74 -398 -74q-114 0 -206.5 39.5t-151 107t-90 155t-31.5 186.5zM379 555h360q-10 108 -60 151.5 t-128 43.5q-17 0 -33.5 -2.5t-42.5 -13.5t-45 -30.5t-34 -58t-17 -90.5z" />
<glyph unicode="f" horiz-adv-x="684" d="M18 721v215h142v22q0 95 30.5 164.5t93 115.5t139.5 74.5t187 49.5l99 -227q-138 -16 -203.5 -57t-65.5 -130v-12h172v-215h-172v-721h-280v721h-142z" />
<glyph unicode="g" horiz-adv-x="1165" d="M78 -147q0 32 10 59t22 43t33.5 31.5t33 21.5t30.5 15q-62 29 -86.5 74t-24.5 108q0 91 117 170q-88 111 -88 231q0 40 8 80t36.5 92.5t74.5 92t131.5 67t197.5 27.5q25 0 47.5 -1.5t35.5 -3.5t36.5 -6t38.5 -6q298 24 383 27l-67 -182h-107q86 -103 86 -191 q0 -50 -11 -97t-42 -96t-79 -85t-129.5 -59t-186.5 -23q-36 0 -104.5 7.5t-104.5 22.5q-16 -2 -26.5 -16.5t-10.5 -38.5q0 -19 10.5 -30.5t43 -20.5t83 -15t141.5 -12q197 -14 302 -48t142.5 -87t37.5 -145q0 -62 -29.5 -110.5t-77.5 -79t-114.5 -51t-135.5 -28.5t-145 -8 q-144 0 -246 19.5t-159 57t-82 85t-25 109.5zM362 -137q0 -37 75 -59.5t153 -22.5q130 0 173.5 15.5t43.5 62.5q0 11 -10.5 20.5t-39.5 19.5t-74.5 17.5t-121 12t-172.5 5.5q-27 -30 -27 -71zM406 602q0 -149 174 -149q86 0 125.5 48t39.5 109q0 146 -167 146 q-24 0 -41 -1.5t-44 -10t-44 -23.5t-30 -45.5t-13 -73.5z" />
<glyph unicode="h" horiz-adv-x="1116" d="M131 0v1346h281v-525q3 3 21 25t36.5 39t45 37.5t61 32.5t71.5 12q84 0 146 -19t100 -50.5t60.5 -82t31 -105t8.5 -126.5v-584h-280v623q0 28 -2.5 45.5t-13 40t-35.5 34t-64 11.5q-23 0 -45.5 -11.5t-39 -26t-37 -44t-32 -49t-32.5 -56.5v-567h-281z" />
<glyph unicode="i" horiz-adv-x="544" d="M127 1104v221h291v-221h-291zM133 0v936h279v-936h-279z" />
<glyph unicode="j" horiz-adv-x="540" d="M-66 -211q107 23 149 68.5t42 136.5v942h281v-924q0 -77 -21 -142t-54.5 -110.5t-84.5 -84.5t-100.5 -64t-112.5 -49zM117 1104v221h297v-221h-297z" />
<glyph unicode="k" horiz-adv-x="1044" d="M131 0v1346h281v-771l262 361h301l-299 -406l348 -530h-319l-293 459v-459h-281z" />
<glyph unicode="l" horiz-adv-x="542" d="M131 0v1346h281v-1346h-281z" />
<glyph unicode="m" horiz-adv-x="1699" d="M104 936h261l38 -117q32 45 103 96.5t141 51.5q120 0 175.5 -24t127.5 -109q82 133 287 133q169 0 250.5 -90.5t81.5 -278.5v-598h-281v594q0 96 -24 128t-72 32q-73 0 -124.5 -57t-82.5 -140v-557h-280v594q0 55 -5.5 87t-21 48t-34 20.5t-52.5 4.5q-16 0 -32 -6.5 t-29.5 -15.5t-28 -25t-24 -28t-22 -32t-18 -29.5t-15.5 -28t-11 -20.5v-569h-281v721q0 44 -12.5 117.5t-14.5 97.5z" />
<glyph unicode="n" horiz-adv-x="1124" d="M104 936h261l41 -115q5 5 28 29.5t41 40t46 35.5t60.5 30.5t67.5 10.5q104 0 174 -27.5t106 -81.5t50 -117t14 -151v-590h-280v608q0 27 -1 41.5t-6.5 37.5t-17 35.5t-34.5 22t-56 9.5q-56 0 -98 -49.5t-88 -137.5v-567h-281v737q0 35 -4 67t-12.5 76t-10.5 56z" />
<glyph unicode="o" horiz-adv-x="1140" d="M84 473q0 101 28 187.5t84.5 156.5t152.5 110t222 40q129 0 225 -38.5t151.5 -107.5t82.5 -155.5t27 -192.5q0 -82 -17 -155.5t-54.5 -138t-93 -110.5t-137.5 -73t-184 -27t-184.5 26.5t-138.5 73t-93.5 111t-54 137.5t-16.5 156zM371 473q0 -291 200 -291q199 0 199 291 q0 112 -24 174.5t-65 84.5t-110 22q-101 0 -150.5 -59.5t-49.5 -221.5z" />
<glyph unicode="p" horiz-adv-x="1128" d="M104 936h261l45 -115q19 25 28 36t34 36.5t45.5 38t52.5 24t65 11.5q107 0 187.5 -40t128 -111t70.5 -159.5t23 -193.5q0 -79 -14.5 -151t-46 -135t-76.5 -109t-111 -72.5t-145 -26.5q-60 0 -130 31t-109 84v-453h-281v1014q0 45 -2.5 84.5t-5.5 63.5t-9 69t-10 74z M406 336q37 -73 88 -113.5t98 -40.5q36 0 63 11t52 39.5t38 87.5t13 147q0 74 -9.5 126.5t-25.5 83.5t-42.5 48.5t-53.5 23t-66 5.5q-27 0 -56 -29t-45 -55.5t-45 -83.5q-6 -11 -9 -17v-233z" />
<glyph unicode="q" horiz-adv-x="1128" d="M84 463q0 103 25 193t74 160t129 110.5t182 40.5q33 0 65 -11.5t52.5 -24t45.5 -38t34 -36.5t28 -36l45 115h260q-4 -29 -10 -74t-9 -69t-5.5 -63.5t-2.5 -84.5v-1014h-280v453q-38 -53 -110 -84t-132 -31q-87 0 -155 27t-112 72t-72.5 109t-40 134t-11.5 152zM371 467 q0 -88 13 -147t38 -87.5t52 -39.5t63 -11q47 0 97 40.5t87 113.5v233q-4 8 -14.5 28.5t-15.5 30t-15 27.5t-16.5 27t-16 22.5t-17.5 21t-17.5 15t-19.5 10.5t-20 3q-41 0 -68.5 -5.5t-54 -23t-42 -48.5t-24.5 -83.5t-9 -126.5z" />
<glyph unicode="r" horiz-adv-x="823" d="M104 936h261l41 -129q15 25 33.5 49t45 51t59.5 43.5t66 16.5q98 0 183 -25l-95 -227q-44 39 -116 39q-96 0 -166 -189q-3 -7 -4 -10v-555h-281v727q0 41 -5 81t-12.5 77.5t-9.5 50.5z" />
<glyph unicode="s" horiz-adv-x="960" d="M74 37l96 229q25 -9 87 -35t105 -37.5t91 -11.5t78.5 6t43 17.5t16 21t3.5 23.5v6q0 20 -27.5 34.5t-71 26t-96.5 25.5t-106 39t-96.5 61t-71 98t-27.5 142q0 69 24.5 121.5t63.5 83t96 49t112 25t122 6.5q144 0 336 -58l-94 -227q-63 29 -88.5 39.5t-68 21.5t-83.5 11 q-72 0 -102.5 -16t-30.5 -50q0 -27 27.5 -46.5t71 -34t96.5 -29.5t106 -39.5t96.5 -58t71 -90.5t27.5 -132q0 -67 -25.5 -119t-66 -83.5t-98.5 -51.5t-116.5 -27.5t-125.5 -7.5q-78 0 -182.5 20t-192.5 48z" />
<glyph unicode="t" horiz-adv-x="651" d="M23 721v217h141v256h278v-256h181v-217h-181v-514q0 -88 42.5 -130.5t152.5 -74.5l-105 -227q-64 24 -114 50.5t-99.5 66t-82 87t-52.5 113t-20 144.5v485h-141z" />
<glyph unicode="u" horiz-adv-x="1110" d="M131 346v590h281v-608q0 -31 2.5 -50.5t12 -44.5t33 -38t60.5 -13q24 0 47 12.5t37.5 25.5t35.5 46t28.5 47t29.5 56v567h281v-737q0 -35 4 -67t12.5 -76t10.5 -56h-261l-40 115q-7 -6 -27.5 -29t-38.5 -40t-44.5 -36.5t-58.5 -30t-67 -10.5q-98 0 -166 28t-104.5 81 t-52 117.5t-15.5 150.5z" />
<glyph unicode="v" horiz-adv-x="1148" d="M70 936h299l213 -614l202 614h295l-364 -936h-283z" />
<glyph unicode="w" horiz-adv-x="1720" d="M53 936h297l195 -596l200 518h279l193 -520l159 598h291l-305 -936h-297l-186 530l-211 -530h-297z" />
<glyph unicode="x" horiz-adv-x="1056" d="M45 0l338 473l-315 463h309l160 -260l168 260h290l-321 -449l338 -487h-310l-176 276l-188 -276h-293z" />
<glyph unicode="y" horiz-adv-x="1130" d="M70 936h299l192 -582l205 582h295l-412 -1086q-110 -295 -391 -389l-96 228q146 40 180 133l82 217z" />
<glyph unicode="z" horiz-adv-x="944" d="M43 229l539 492h-465v215h690l94 -229l-530 -492h493v-215h-725z" />
<glyph unicode="{" horiz-adv-x="831" d="M98 438v211q49 2 80.5 25.5t46 62t22.5 88t14.5 104t17 109.5t36.5 105t66.5 89.5t112 64.5t168.5 28v-211q-51 0 -82 -25t-44 -67t-19.5 -93.5t-14 -109t-22.5 -109.5t-51 -97.5t-93 -71.5q58 -21 94.5 -64t51 -95t22 -109.5t13.5 -111t18.5 -97t43.5 -69.5t83 -26v-211 q-97 3 -167.5 27t-110.5 63t-65.5 88.5t-35.5 104t-17 109.5t-14.5 105t-22.5 89.5t-47.5 64.5t-83.5 29z" />
<glyph unicode="|" horiz-adv-x="579" d="M172 -340v1778h236v-1778h-236z" />
<glyph unicode="}" horiz-adv-x="831" d="M172 -31q52 0 83 26t43.5 69.5t18 97t12.5 111t21.5 109.5t51 95t94.5 64q-57 26 -93 71.5t-50.5 97.5t-22 109.5t-14 109t-19 93.5t-43.5 67t-82 25v211q97 -3 168.5 -28t112 -64.5t66 -89.5t35.5 -105t16.5 -109.5t14 -104t22 -88t46 -62t80.5 -25.5v-211 q-51 -4 -83 -29t-47 -64.5t-22.5 -89.5t-14 -105t-16.5 -109.5t-35 -104t-65 -88.5t-110.5 -63t-167.5 -27v211z" />
<glyph unicode="~" d="M63 440q0 113 77.5 195t221.5 82q76 0 149 -30t116 -65.5t76.5 -65.5t39.5 -30q38 0 60.5 4.5t42 20t27.5 47.5t8 84l217 -117q0 -52 -18 -100t-53 -88t-95 -64t-137 -24q-67 0 -134.5 30.5t-111 66.5t-81.5 66.5t-52 30.5q-74 0 -105.5 -31.5t-31.5 -129.5z" />
<glyph unicode="&#xa1;" horiz-adv-x="579" d="M145 1073v252h287v-252h-287zM152 0v940h276v-940h-276z" />
<glyph unicode="&#xa2;" horiz-adv-x="976" d="M84 461q0 202 95 331t278 162v195h221v-195q143 -25 223 -57l-96 -229q-10 5 -36.5 18.5t-48.5 24t-42 18.5v-524q44 17 137 63l96 -229q-64 -33 -233 -57v-187h-221v187q-180 33 -276.5 160.5t-96.5 318.5zM371 461q0 -100 23.5 -156t62.5 -94v518q-42 -31 -64 -91 t-22 -177z" />
<glyph unicode="&#xa3;" d="M86 580v211h158l2 47q0 240 167 381t490 161l80 -254q-56 0 -93.5 -1.5t-83 -6.5t-75 -14.5t-61.5 -26t-51.5 -41.5t-36 -59t-24 -80.5t-7.5 -105.5h291v-211h-287v-334h561v-246h-999v246h127v334h-158z" />
<glyph unicode="&#xa5;" d="M-6 1325h346l246 -475l252 475h327l-379 -635h181v-209h-238v-84h238v-207h-238v-190h-311v190h-240v207h240v84h-240v209h180z" />
<glyph unicode="&#xa6;" horiz-adv-x="579" d="M174 -160v479h232v-479h-232zM174 735v479h232v-479h-232z" />
<glyph unicode="&#xa7;" horiz-adv-x="917" d="M47 684q0 71 28.5 125.5t74.5 83.5q-70 73 -70 176q0 285 422 285q124 0 317 -58l-96 -225q-16 7 -49.5 22.5t-53.5 24t-52 16t-64 7.5q-73 0 -106 -16t-33 -50q0 -27 28 -47t72.5 -34t98.5 -29.5t107.5 -40.5t98 -59t72.5 -91.5t28 -132.5q0 -131 -82 -207 q39 -73 39 -178q0 -67 -24.5 -119t-64.5 -83.5t-97 -51.5t-115 -27.5t-125 -7.5q-136 0 -342 68l97 227q17 -8 54 -26t60 -28t60.5 -19t75.5 -9q46 0 75.5 5.5t42 16t16 19t3.5 21.5v12q0 25 -27.5 42.5t-71 29.5t-96.5 26t-106 38.5t-96.5 59t-71 94.5t-27.5 140zM326 684 q0 -12 7 -23t22 -21t30 -18t41.5 -17.5t45 -15.5t51 -16t50.5 -16q19 19 19 53v29q0 42 -57 74.5t-160 62.5q-49 -24 -49 -92z" />
<glyph unicode="&#xa8;" horiz-adv-x="544" d="M-16 1114v211h245v-211h-245zM317 1114v211h246v-211h-246z" />
<glyph unicode="&#xa9;" horiz-adv-x="1474" d="M51 664q0 142 53.5 269t145.5 218t219 144t268 53q144 0 271 -52.5t218 -143t144 -217.5t53 -271q0 -142 -53.5 -269t-145.5 -218t-219 -144t-268 -53t-268 53t-219 144t-145.5 218t-53.5 269zM213 664q0 -107 41 -206t110.5 -171t167 -115t205.5 -43q144 0 265 72.5 t190.5 195.5t69.5 267q0 145 -68.5 267.5t-189.5 194.5t-267 72q-147 0 -267.5 -71.5t-188.5 -194t-68 -268.5zM373 659q0 69 11 128t38 113.5t69 92t108 60t151 22.5q124 0 215 -31l-58 -153q-100 45 -157 45q-99 0 -144 -66t-45 -208q0 -150 42.5 -217.5t141.5 -67.5 q14 0 27 1t27 4.5t23 6t24.5 8.5t22 9t25 11t24.5 11l55 -154q-98 -36 -225 -36q-198 0 -286.5 109t-88.5 312z" />
<glyph unicode="&#xaa;" d="M303 936q0 88 72 142.5t239 54.5h41v22q0 13 -1 19.5t-6.5 16t-19.5 13.5t-36 4q-108 0 -211 -47l-57 133q116 39 280 39q103 0 168.5 -41.5t65.5 -122.5v-211q0 -18 4 -44t10.5 -59.5t9.5 -53.5h-174l-8 20q-11 29 -12 29q-86 -64 -140 -64q-225 0 -225 150zM479 944 q0 -15 9 -22.5t20 -9t31 -1.5h22q51 0 98 47v58h-28q-85 0 -118.5 -16.5t-33.5 -55.5z" />
<glyph unicode="&#xab;" horiz-adv-x="886" d="M37 553l190 373h254l-198 -369l196 -369h-252zM408 553l190 373h252l-199 -369l197 -369h-250z" />
<glyph unicode="&#xac;" d="M72 512v207h1005v-559h-229v352h-776z" />
<glyph unicode="&#xad;" horiz-adv-x="741" d="M53 328v229h635v-229h-635z" />
<glyph unicode="&#xae;" horiz-adv-x="1474" d="M51 664q0 142 53.5 269t145.5 218t219 144t268 53q144 0 271 -52.5t218 -143t144 -217.5t53 -271q0 -142 -53.5 -269t-145.5 -218t-219 -144t-268 -53t-268 53t-219 144t-145.5 218t-53.5 269zM213 664q0 -107 41 -206t110.5 -171t167 -115t205.5 -43q144 0 265 72.5 t190.5 195.5t69.5 267q0 145 -68.5 267.5t-189.5 194.5t-267 72q-147 0 -267.5 -71.5t-188.5 -194t-68 -268.5zM434 264v799h316q52 0 95.5 -10t85.5 -35t66.5 -75t24.5 -122q0 -190 -176 -231l233 -326h-223l-225 322h-13v-322h-184zM618 725h140q35 0 56.5 26.5t21.5 69.5 t-21 71t-59 28h-138v-195z" />
<glyph unicode="&#xaf;" horiz-adv-x="544" d="M-6 1092v194h557v-194h-557z" />
<glyph unicode="&#xb0;" horiz-adv-x="921" d="M88 897q0 156 109.5 261.5t263.5 105.5t262 -105t108 -262q0 -156 -108.5 -258t-263.5 -102t-263 102t-108 258zM258 897q0 -83 60.5 -143t140.5 -60t141.5 60.5t61.5 142.5q0 91 -56.5 149t-144.5 58t-145.5 -58.5t-57.5 -148.5z" />
<glyph unicode="&#xb1;" d="M102 -2v207h955v-207h-955zM123 479v207h342v203h229v-203h342v-207h-342v-233h-229v233h-342z" />
<glyph unicode="&#xb2;" horiz-adv-x="780" d="M92 803q13 8 58.5 33.5t73.5 41.5t72.5 44t73 50t57.5 48t43.5 50.5t14.5 45.5q0 33 -9.5 53.5t-28.5 29t-34.5 11t-39.5 2.5q-78 0 -197 -57l-53 150q107 33 147 41t105 8q44 0 84.5 -6t83 -22t73.5 -41t50.5 -67t19.5 -96q0 -39 -25 -80.5t-62 -76t-87 -69.5t-90.5 -58 t-83.5 -45h348v-142h-545z" />
<glyph unicode="&#xb3;" horiz-adv-x="780" d="M100 664l52 149q16 -9 82 -25t120 -16q59 0 93 25.5t34 54.5q0 31 -16 50.5t-51.5 28.5t-73.5 12t-100 3v133q64 0 97.5 2t66.5 9t46 23t13 42q0 33 -26 45t-77 12q-82 0 -194 -51l-51 152q37 17 118 29t134 12q139 0 215.5 -50.5t76.5 -146.5q0 -63 -49.5 -99 t-122.5 -44q76 -11 133.5 -52t57.5 -112q0 -51 -21.5 -90t-54.5 -62.5t-78 -38.5t-87 -20.5t-87 -5.5q-153 0 -250 31z" />
<glyph unicode="&#xb4;" horiz-adv-x="544" d="M39 1085l197 240h270l-281 -240h-186z" />
<glyph unicode="&#xb6;" horiz-adv-x="1105" d="M41 903q0 41 5.5 81t19.5 90.5t43 93t71 79t108.5 57.5t149.5 21h652v-1710h-230v1499h-205q-97 0 -160 -66t-63 -184q0 -90 63 -165t138 -95v-989h-232v860q-94 18 -166 63.5t-113 106.5t-61 126t-20 132z" />
<glyph unicode="&#xb7;" horiz-adv-x="579" d="M164 418v252h252v-252h-252z" />
<glyph unicode="&#xb8;" horiz-adv-x="544" d="M-4 -457l57 187q140 -17 160 -17q98 0 98 80q0 44 -30 60t-134 16l43 162h216l-21 -78q68 0 104.5 -50.5t36.5 -105.5q0 -66 -29 -120t-74.5 -85.5t-97 -48t-102.5 -16.5q-109 0 -227 16z" />
<glyph unicode="&#xb9;" horiz-adv-x="780" d="M158 1190l198 135h181v-684h-199v516l-123 -98z" />
<glyph unicode="&#xba;" d="M281 1081q0 116 76.5 194.5t224.5 78.5q152 0 227.5 -76t75.5 -197q0 -119 -77.5 -198.5t-225.5 -79.5q-149 0 -225 79.5t-76 198.5zM459 1081q0 -151 123 -151t123 151q0 86 -32 117t-91 31q-58 0 -90.5 -31t-32.5 -117z" />
<glyph unicode="&#xbb;" horiz-adv-x="886" d="M39 926h254l190 -373l-190 -365h-252l197 369zM410 926h252l190 -373l-190 -365h-250l196 369z" />
<glyph unicode="&#xbc;" horiz-adv-x="1794" d="M131 1190l197 135h180v-684h-197v516l-125 -98zM319 0l740 1288h237l-741 -1288h-236zM924 313l336 371h217v-371h112v-141h-112v-172h-195v172h-299zM1087 313h195v207z" />
<glyph unicode="&#xbd;" horiz-adv-x="1794" d="M119 1190l198 135h181v-684h-199v516l-123 -98zM305 0l742 1288h235l-743 -1288h-234zM1059 147q8 5 58.5 33.5t74 42.5t71.5 44t74 51t56.5 48t44.5 51.5t14 45.5q0 33 -9.5 54t-28.5 30t-35 11.5t-40 2.5q-79 0 -198 -57l-54 149q106 33 147.5 41t106.5 8 q56 0 106.5 -10.5t99 -35t77.5 -72.5t29 -115q0 -39 -25.5 -80.5t-62.5 -76t-87.5 -70t-91 -58.5t-83.5 -45h350v-139h-545z" />
<glyph unicode="&#xbe;" horiz-adv-x="1794" d="M102 664l54 149q16 -9 81 -25t119 -16q59 0 93 25.5t34 54.5q0 31 -15.5 50.5t-51 29t-73 12t-99.5 2.5v133q51 0 79.5 1t60 5t46.5 12t25 22.5t10 35.5q0 33 -25 45t-75 12q-83 0 -195 -51l-53 152q37 17 118 29t134 12q140 0 217.5 -50.5t77.5 -146.5q0 -63 -50.5 -99 t-124.5 -44q77 -11 135 -52t58 -112q0 -51 -21.5 -90t-55 -62.5t-78.5 -38.5t-87.5 -20.5t-87.5 -5.5q-153 0 -250 31zM391 0l742 1288h235l-743 -1288h-234zM958 313l336 371h217v-371h113v-141h-113v-172h-194v172h-299zM1122 313h195v207z" />
<glyph unicode="&#xbf;" horiz-adv-x="993" d="M104 336q0 57 25.5 107t63.5 83.5t82 68t82 62.5t63.5 66t25.5 78v151h273v-161q0 -57 -17.5 -104.5t-45.5 -80.5t-61.5 -61t-67 -51.5t-61.5 -46.5t-45.5 -51t-17.5 -60q0 -62 28.5 -89.5t111.5 -27.5q62 0 180 23t170 49l37 -250q-65 -23 -188.5 -42t-198.5 -19 q-42 0 -75 2t-81 10t-84.5 21.5t-75.5 40.5t-64.5 63.5t-42 92.5t-16.5 126zM440 1073v252h287v-252h-287z" />
<glyph unicode="&#xc0;" horiz-adv-x="1443" d="M55 0l539 1325h295l500 -1325h-345l-106 334h-438l-111 -334h-334zM485 1663h271l196 -240h-184zM586 569h272l-131 420z" />
<glyph unicode="&#xc1;" horiz-adv-x="1443" d="M55 0l539 1325h295l500 -1325h-345l-106 334h-438l-111 -334h-334zM514 1425l197 240h270l-281 -240h-186zM586 569h272l-131 420z" />
<glyph unicode="&#xc2;" horiz-adv-x="1443" d="M55 0l539 1325h295l500 -1325h-345l-106 334h-438l-111 -334h-334zM436 1417l213 246h180l205 -246h-194l-101 123l-106 -123h-197zM586 569h272l-131 420z" />
<glyph unicode="&#xc3;" horiz-adv-x="1443" d="M55 0l539 1325h295l500 -1325h-345l-106 334h-438l-111 -334h-334zM389 1454q40 92 98 128t154 36q32 0 63 -15.5t51 -34.5t45.5 -34.5t47.5 -15.5q40 0 70.5 31.5t39.5 64.5l140 -68q-27 -84 -95.5 -132t-150.5 -48q-42 0 -77 15.5t-53 33.5t-40.5 33.5t-42.5 15.5 q-82 0 -109 -75zM586 569h272l-131 420z" />
<glyph unicode="&#xc4;" horiz-adv-x="1443" d="M55 0l539 1325h295l500 -1325h-345l-106 334h-438l-111 -334h-334zM442 1370v211h246v-211h-246zM586 569h272l-131 420zM776 1370v211h246v-211h-246z" />
<glyph unicode="&#xc5;" horiz-adv-x="1443" d="M55 0l539 1325h295l500 -1325h-345l-106 334h-438l-111 -334h-334zM586 569h272l-131 420zM588 1542q0 70 49.5 119t120.5 49q72 0 121 -48t49 -120q0 -70 -49.5 -119t-120.5 -49q-69 0 -119.5 49.5t-50.5 118.5zM678 1544q0 -30 23 -55t57 -25q38 0 58 23.5t20 56.5 q0 34 -21 57t-57 23q-34 0 -57 -24.5t-23 -55.5z" />
<glyph unicode="&#xc6;" horiz-adv-x="2113" d="M55 0l752 1325h1073v-240h-678l39 -280h596v-240h-555l55 -325h561v-240h-825l-45 334h-438l-176 -334h-359zM717 569h276l-53 426z" />
<glyph unicode="&#xc7;" horiz-adv-x="1210" d="M117 662q0 116 19.5 214.5t66.5 188.5t119 153.5t184.5 100.5t255.5 37q85 0 186.5 -16.5t177.5 -41.5l-94 -260q-7 3 -36 15.5t-39 17t-35.5 14.5t-40.5 14t-37 9.5t-42 7.5t-40 2q-170 0 -247 -110.5t-77 -343.5q0 -247 72.5 -358t239.5 -111q41 0 83 9.5t66 18.5 t75.5 31.5t72.5 30.5l94 -260q-194 -68 -385 -68v-4q69 0 109 -51t40 -105q0 -66 -30.5 -120t-78 -85.5t-100.5 -48t-104 -16.5q-109 0 -227 16l57 191q23 -3 58.5 -8t59.5 -8t42 -3q98 0 98 78q0 44 -30 60t-134 16l29 108q-428 111 -428 685z" />
<glyph unicode="&#xc8;" horiz-adv-x="1234" d="M188 0v1325h813v-240h-501v-280h458v-240h-458v-325h520v-240h-832zM338 1663h270l197 -240h-184z" />
<glyph unicode="&#xc9;" horiz-adv-x="1234" d="M188 0v1325h813v-240h-501v-280h458v-240h-458v-325h520v-240h-832zM287 1386l196 240h271l-281 -240h-186z" />
<glyph unicode="&#xca;" horiz-adv-x="1234" d="M188 0v1325h813v-240h-501v-280h458v-240h-458v-325h520v-240h-832zM287 1419l213 246h180l205 -246h-195l-100 123l-107 -123h-196z" />
<glyph unicode="&#xcb;" horiz-adv-x="1234" d="M188 0v1325h813v-240h-501v-280h458v-240h-458v-325h520v-240h-832zM334 1370v211h246v-211h-246zM668 1370v211h245v-211h-245z" />
<glyph unicode="&#xcc;" horiz-adv-x="638" d="M100 1657h271l196 -240h-184zM164 0v1325h311v-1325h-311z" />
<glyph unicode="&#xcd;" horiz-adv-x="638" d="M98 1417l197 240h270l-280 -240h-187zM162 0v1325h311v-1325h-311z" />
<glyph unicode="&#xce;" horiz-adv-x="638" d="M20 1401l213 246h181l204 -246h-194l-100 123l-107 -123h-197zM164 0v1325h311v-1325h-311z" />
<glyph unicode="&#xcf;" horiz-adv-x="638" d="M31 1479v211h245v-211h-245zM156 0v1325h311v-1325h-311zM365 1479v211h245v-211h-245z" />
<glyph unicode="&#xd0;" horiz-adv-x="1423" d="M59 633v213h129v479h486q159 0 274 -34.5t197 -111.5t122 -204t40 -307q0 -184 -38 -312t-118 -206.5t-196 -114t-281 -35.5h-486v633h-129zM500 240h192q53 0 90 6.5t78 31.5t66.5 69.5t42 125t16.5 193.5q0 68 -7 124.5t-16.5 97.5t-28 73t-34 52.5t-41.5 35 t-43.5 21.5t-48 10.5t-46.5 4t-46 0.5h-174v-239h157v-213h-157v-393z" />
<glyph unicode="&#xd1;" horiz-adv-x="1542" d="M188 0v1325h467l392 -956v956h307v-1325h-471l-396 956v-956h-299zM428 1456q40 92 98 128t154 36q32 0 63 -15.5t51 -34.5t45.5 -34.5t47.5 -15.5q40 0 70.5 31.5t39.5 64.5l140 -68q-27 -84 -95.5 -132t-150.5 -48q-42 0 -77 15.5t-53 33.5t-40.5 33.5t-42.5 15.5 q-82 0 -109 -75z" />
<glyph unicode="&#xd2;" horiz-adv-x="1529" d="M117 657q0 120 21 221.5t70 190.5t123 151.5t186 98t253 35.5q173 0 298.5 -50t200 -144.5t109.5 -219t35 -283.5q0 -122 -20.5 -224t-68.5 -191t-121 -151t-183.5 -97t-251.5 -35q-145 0 -257.5 35t-186 95.5t-120.5 150t-67 191.5t-20 226zM436 1663h271l196 -240h-184 zM438 657q0 -137 21 -228t65.5 -140.5t102 -69.5t141.5 -20q168 0 246 108t78 350q0 104 -14.5 182.5t-41 130.5t-67 84.5t-89.5 46t-112 13.5q-81 0 -140 -23t-103 -75.5t-65.5 -141.5t-21.5 -217z" />
<glyph unicode="&#xd3;" horiz-adv-x="1529" d="M117 657q0 120 21 221.5t70 190.5t123 151.5t186 98t253 35.5q173 0 298.5 -50t200 -144.5t109.5 -219t35 -283.5q0 -122 -20.5 -224t-68.5 -191t-121 -151t-183.5 -97t-251.5 -35q-145 0 -257.5 35t-186 95.5t-120.5 150t-67 191.5t-20 226zM438 657q0 -137 21 -228 t65.5 -140.5t102 -69.5t141.5 -20q168 0 246 108t78 350q0 104 -14.5 182.5t-41 130.5t-67 84.5t-89.5 46t-112 13.5q-81 0 -140 -23t-103 -75.5t-65.5 -141.5t-21.5 -217zM524 1425l197 240h270l-280 -240h-187z" />
<glyph unicode="&#xd4;" horiz-adv-x="1529" d="M117 657q0 120 21 221.5t70 190.5t123 151.5t186 98t253 35.5q173 0 298.5 -50t200 -144.5t109.5 -219t35 -283.5q0 -122 -20.5 -224t-68.5 -191t-121 -151t-183.5 -97t-251.5 -35q-145 0 -257.5 35t-186 95.5t-120.5 150t-67 191.5t-20 226zM438 657q0 -137 21 -228 t65.5 -140.5t102 -69.5t141.5 -20q168 0 246 108t78 350q0 104 -14.5 182.5t-41 130.5t-67 84.5t-89.5 46t-112 13.5q-81 0 -140 -23t-103 -75.5t-65.5 -141.5t-21.5 -217zM459 1419l213 246h180l205 -246h-195l-100 123l-107 -123h-196z" />
<glyph unicode="&#xd5;" horiz-adv-x="1529" d="M117 657q0 120 21 221.5t70 190.5t123 151.5t186 98t253 35.5q173 0 298.5 -50t200 -144.5t109.5 -219t35 -283.5q0 -122 -20.5 -224t-68.5 -191t-121 -151t-183.5 -97t-251.5 -35q-145 0 -257.5 35t-186 95.5t-120.5 150t-67 191.5t-20 226zM430 1456q40 92 98 128 t154 36q32 0 63 -15.5t51 -34.5t45.5 -34.5t47.5 -15.5q40 0 70.5 31.5t39.5 64.5l140 -68q-27 -84 -95.5 -132t-150.5 -48q-42 0 -77 15.5t-53 33.5t-40.5 33.5t-42.5 15.5q-82 0 -109 -75zM438 657q0 -137 21 -228t65.5 -140.5t102 -69.5t141.5 -20q168 0 246 108t78 350 q0 104 -14.5 182.5t-41 130.5t-67 84.5t-89.5 46t-112 13.5q-81 0 -140 -23t-103 -75.5t-65.5 -141.5t-21.5 -217z" />
<glyph unicode="&#xd6;" horiz-adv-x="1529" d="M117 657q0 120 21 221.5t70 190.5t123 151.5t186 98t253 35.5q173 0 298.5 -50t200 -144.5t109.5 -219t35 -283.5q0 -122 -20.5 -224t-68.5 -191t-121 -151t-183.5 -97t-251.5 -35q-145 0 -257.5 35t-186 95.5t-120.5 150t-67 191.5t-20 226zM438 657q0 -137 21 -228 t65.5 -140.5t102 -69.5t141.5 -20q168 0 246 108t78 350q0 104 -14.5 182.5t-41 130.5t-67 84.5t-89.5 46t-112 13.5q-81 0 -140 -23t-103 -75.5t-65.5 -141.5t-21.5 -217zM479 1370v211h246v-211h-246zM813 1370v211h246v-211h-246z" />
<glyph unicode="&#xd7;" d="M88 213l330 330l-330 329l164 164l330 -329l329 329l164 -164l-330 -329l330 -330l-164 -164l-329 330l-330 -330z" />
<glyph unicode="&#xd8;" horiz-adv-x="1529" d="M33 -2l184 217q-100 165 -100 442q0 120 21 221.5t70 190.5t123 151.5t186 98t253 35.5q212 0 360 -74l148 172l201 -184l-156 -185q90 -164 90 -426q0 -122 -20.5 -224t-68.5 -191t-121 -151t-183.5 -97t-251.5 -35q-207 0 -354 64l-178 -209zM438 657q0 -101 6 -174 l506 588q-71 43 -182 43q-81 0 -140 -23t-103 -75.5t-65.5 -141.5t-21.5 -217zM586 225q58 -26 182 -26q168 0 246 108t78 350q0 31 -1 82t-1 72z" />
<glyph unicode="&#xd9;" horiz-adv-x="1525" d="M188 489v836h312v-815q0 -67 11 -119t32.5 -85t46.5 -55t58.5 -33t62.5 -15t65 -4q109 0 179.5 73.5t70.5 237.5v815h311v-840q0 -260 -147 -393t-414 -133q-291 0 -439.5 132.5t-148.5 397.5zM430 1663h270l197 -240h-184z" />
<glyph unicode="&#xda;" horiz-adv-x="1525" d="M188 489v836h312v-815q0 -67 11 -119t32.5 -85t46.5 -55t58.5 -33t62.5 -15t65 -4q109 0 179.5 73.5t70.5 237.5v815h311v-840q0 -260 -147 -393t-414 -133q-291 0 -439.5 132.5t-148.5 397.5zM590 1384l196 240h271l-281 -240h-186z" />
<glyph unicode="&#xdb;" horiz-adv-x="1525" d="M188 489v836h312v-815q0 -67 11 -119t32.5 -85t46.5 -55t58.5 -33t62.5 -15t65 -4q109 0 179.5 73.5t70.5 237.5v815h311v-840q0 -260 -147 -393t-414 -133q-291 0 -439.5 132.5t-148.5 397.5zM469 1419l213 246h180l205 -246h-195l-100 123l-106 -123h-197z" />
<glyph unicode="&#xdc;" horiz-adv-x="1525" d="M188 489v836h312v-815q0 -67 11 -119t32.5 -85t46.5 -55t58.5 -33t62.5 -15t65 -4q109 0 179.5 73.5t70.5 237.5v815h311v-840q0 -260 -147 -393t-414 -133q-291 0 -439.5 132.5t-148.5 397.5zM485 1370v211h246v-211h-246zM819 1370v211h246v-211h-246z" />
<glyph unicode="&#xdd;" horiz-adv-x="1327" d="M27 1325h354l289 -463l291 463h339l-487 -729v-596h-311v588zM319 1417l197 240h270l-280 -240h-187z" />
<glyph unicode="&#xde;" horiz-adv-x="1273" d="M188 0v1325h312v-235h194q482 0 482 -408q0 -420 -459 -420h-217v-262h-312zM500 502h200q67 0 113.5 42.5t46.5 137.5q0 48 -12 81.5t-27 50t-42.5 25.5t-43.5 10t-45 1h-190v-348z" />
<glyph unicode="&#xdf;" horiz-adv-x="1142" d="M131 0v965q0 187 107 284t284 97q412 0 412 -336q0 -60 -15.5 -110.5t-37.5 -82t-52.5 -58t-55 -39.5t-52 -26.5t-35.5 -19.5q14 -6 46.5 -17t57.5 -20t60 -26.5t61.5 -37t55 -51.5t46.5 -69.5t30 -92t12 -118.5q0 -100 -38.5 -182t-101.5 -136t-147.5 -91t-173 -53 t-180.5 -16l98 236q66 0 117.5 25t80 63.5t42.5 79t14 78.5q0 48 -8.5 87t-21.5 66t-34.5 48.5t-41.5 33.5t-48.5 23t-49 16t-50 12t-45.5 11v219l22 14q22 14 26.5 17.5t25 18.5t27.5 23.5t23 25t22.5 31.5t15.5 35t12.5 42t3.5 47q0 51 -34.5 82.5t-88.5 31.5 q-41 0 -75.5 -31t-34.5 -112v-987h-281z" />
<glyph unicode="&#xe0;" horiz-adv-x="1112" d="M84 246q0 60 15.5 110t53 95.5t95.5 77.5t149 50.5t207 18.5h72v31q0 19 -1 30.5t-6.5 31t-16 30.5t-32 20t-51.5 9q-182 0 -354 -82l-96 229q201 68 469 68q169 0 269.5 -75.5t100.5 -223.5v-379q0 -42 18.5 -148t22.5 -139h-268q-1 0 -21 48l-16 38q-3 -2 -18.5 -14.5 t-21.5 -17t-22.5 -16.5t-26 -17.5t-25.5 -15t-29 -14t-28.5 -10t-31 -8t-30.5 -2.5q-377 0 -377 275zM231 1325h271l196 -240h-184zM375 258q0 -24 12.5 -39.5t37 -22t44.5 -8.5t49 -2q68 0 160 103v108h-45q-136 0 -197 -34.5t-61 -104.5z" />
<glyph unicode="&#xe1;" horiz-adv-x="1112" d="M84 246q0 60 15.5 110t53 95.5t95.5 77.5t149 50.5t207 18.5h72v31q0 19 -1 30.5t-6.5 31t-16 30.5t-32 20t-51.5 9q-182 0 -354 -82l-96 229q201 68 469 68q169 0 269.5 -75.5t100.5 -223.5v-379q0 -42 18.5 -148t22.5 -139h-268q-1 0 -21 48l-16 38q-3 -2 -18.5 -14.5 t-21.5 -17t-22.5 -16.5t-26 -17.5t-25.5 -15t-29 -14t-28.5 -10t-31 -8t-30.5 -2.5q-377 0 -377 275zM305 1085l197 240h270l-280 -240h-187zM375 258q0 -24 12.5 -39.5t37 -22t44.5 -8.5t49 -2q68 0 160 103v108h-45q-136 0 -197 -34.5t-61 -104.5z" />
<glyph unicode="&#xe2;" horiz-adv-x="1112" d="M84 246q0 60 15.5 110t53 95.5t95.5 77.5t149 50.5t207 18.5h72v31q0 19 -1 30.5t-6.5 31t-16 30.5t-32 20t-51.5 9q-182 0 -354 -82l-96 229q201 68 469 68q169 0 269.5 -75.5t100.5 -223.5v-379q0 -42 18.5 -148t22.5 -139h-268q-1 0 -21 48l-16 38q-3 -2 -18.5 -14.5 t-21.5 -17t-22.5 -16.5t-26 -17.5t-25.5 -15t-29 -14t-28.5 -10t-31 -8t-30.5 -2.5q-377 0 -377 275zM215 1079l213 246h180l205 -246h-195l-100 123l-106 -123h-197zM375 258q0 -24 12.5 -39.5t37 -22t44.5 -8.5t49 -2q68 0 160 103v108h-45q-136 0 -197 -34.5t-61 -104.5z " />
<glyph unicode="&#xe3;" horiz-adv-x="1112" d="M84 246q0 60 15.5 110t53 95.5t95.5 77.5t149 50.5t207 18.5h72v31q0 19 -1 30.5t-6.5 31t-16 30.5t-32 20t-51.5 9q-182 0 -354 -82l-96 229q201 68 469 68q169 0 269.5 -75.5t100.5 -223.5v-379q0 -42 18.5 -148t22.5 -139h-268q-1 0 -21 48l-16 38q-3 -2 -18.5 -14.5 t-21.5 -17t-22.5 -16.5t-26 -17.5t-25.5 -15t-29 -14t-28.5 -10t-31 -8t-30.5 -2.5q-377 0 -377 275zM170 1112q40 92 98 128t154 36q32 0 63 -15.5t51 -34.5t45.5 -34.5t47.5 -15.5q40 0 70.5 31.5t39.5 64.5l140 -68q-27 -84 -95.5 -132t-150.5 -48q-42 0 -77 15.5 t-53 33.5t-40.5 33.5t-42.5 15.5q-82 0 -109 -75zM375 258q0 -24 12.5 -39.5t37 -22t44.5 -8.5t49 -2q68 0 160 103v108h-45q-136 0 -197 -34.5t-61 -104.5z" />
<glyph unicode="&#xe4;" horiz-adv-x="1112" d="M84 246q0 60 15.5 110t53 95.5t95.5 77.5t149 50.5t207 18.5h72v31q0 19 -1 30.5t-6.5 31t-16 30.5t-32 20t-51.5 9q-182 0 -354 -82l-96 229q201 68 469 68q169 0 269.5 -75.5t100.5 -223.5v-379q0 -42 18.5 -148t22.5 -139h-268q-1 0 -21 48l-16 38q-3 -2 -18.5 -14.5 t-21.5 -17t-22.5 -16.5t-26 -17.5t-25.5 -15t-29 -14t-28.5 -10t-31 -8t-30.5 -2.5q-377 0 -377 275zM252 1067v223h248v-223h-248zM375 258q0 -24 12.5 -39.5t37 -22t44.5 -8.5t49 -2q68 0 160 103v108h-45q-136 0 -197 -34.5t-61 -104.5zM588 1067v223h248v-223h-248z" />
<glyph unicode="&#xe5;" horiz-adv-x="1112" d="M84 246q0 60 15.5 110t53 95.5t95.5 77.5t149 50.5t207 18.5h72v31q0 19 -1 30.5t-6.5 31t-16 30.5t-32 20t-51.5 9q-182 0 -354 -82l-96 229q201 68 469 68q169 0 269.5 -75.5t100.5 -223.5v-379q0 -42 18.5 -148t22.5 -139h-268q-1 0 -21 48l-16 38q-3 -2 -18.5 -14.5 t-21.5 -17t-22.5 -16.5t-26 -17.5t-25.5 -15t-29 -14t-28.5 -10t-31 -8t-30.5 -2.5q-377 0 -377 275zM360 1206q0 70 49.5 119t120.5 49q72 0 121 -48t49 -120q0 -70 -49.5 -119t-120.5 -49q-69 0 -119.5 49.5t-50.5 118.5zM375 258q0 -24 12.5 -39.5t37 -22t44.5 -8.5 t49 -2q68 0 160 103v108h-45q-136 0 -197 -34.5t-61 -104.5zM451 1208q0 -30 22.5 -55t56.5 -25q38 0 58 23.5t20 56.5q0 34 -21 57t-57 23q-34 0 -56.5 -24.5t-22.5 -55.5z" />
<glyph unicode="&#xe6;" horiz-adv-x="1685" d="M84 246q0 60 15.5 110t53 95.5t95.5 77.5t149 50.5t207 18.5h70v35q0 18 -1 30.5t-6.5 30.5t-16 29t-31.5 19t-50 8q-182 0 -354 -82l-96 229q192 68 469 68q140 0 270 -80q129 80 270 80q133 0 223 -35.5t145 -113.5t78 -190.5t23 -277.5h-641q34 -170 203 -170 q129 0 289 80l92 -213q-167 -74 -397 -74q-127 0 -225.5 48t-129.5 114q-162 -162 -327 -162q-377 0 -377 275zM375 258q0 -24 12.5 -39.5t37 -22t44.5 -8.5t49 -2q14 0 27.5 3t24 7t23 12.5t19.5 13t19 16.5l16 16t15.5 17.5t13.5 15.5v110h-43q-136 0 -197 -34.5 t-61 -104.5zM956 555h363q-17 195 -189 195q-17 0 -33.5 -2.5t-43 -13.5t-46 -30.5t-34.5 -58t-17 -90.5z" />
<glyph unicode="&#xe7;" horiz-adv-x="976" d="M84 461q0 235 124.5 370.5t369.5 135.5q59 0 166.5 -25t166.5 -49l-104 -223q-10 4 -68.5 31t-95 39t-68.5 12q-52 0 -87.5 -12t-63 -43.5t-40.5 -89.5t-13 -146q0 -80 15 -135.5t44 -85.5t63.5 -43t79.5 -13q73 0 242 80l107 -221q-41 -21 -131.5 -41t-167.5 -29l-9 -24 q69 0 105.5 -48t36.5 -104q0 -69 -28.5 -123t-74 -85t-96.5 -46.5t-102 -15.5q-110 0 -228 16l66 181q24 -3 56.5 -8t54.5 -8t40 -3q42 0 73.5 22t31.5 66q0 29 -12 44.5t-49 23.5t-109 8l31 121q-159 43 -242.5 168t-83.5 303z" />
<glyph unicode="&#xe8;" horiz-adv-x="1107" d="M84 459q0 70 13 136.5t46 135t84 119.5t134 83t188 32q133 0 223.5 -35.5t145.5 -113t78.5 -190.5t23.5 -278h-643q34 -170 203 -170q128 0 288 80l93 -213q-167 -74 -398 -74q-114 0 -206.5 39.5t-151 107t-90 155t-31.5 186.5zM252 1325h270l197 -240h-184zM379 555 h360q-10 108 -60 151.5t-128 43.5q-17 0 -33.5 -2.5t-42.5 -13.5t-45 -30.5t-34 -58t-17 -90.5z" />
<glyph unicode="&#xe9;" horiz-adv-x="1107" d="M84 459q0 70 13 136.5t46 135t84 119.5t134 83t188 32q133 0 223.5 -35.5t145.5 -113t78.5 -190.5t23.5 -278h-643q34 -170 203 -170q128 0 288 80l93 -213q-167 -74 -398 -74q-114 0 -206.5 39.5t-151 107t-90 155t-31.5 186.5zM379 555h360q-10 108 -60 151.5 t-128 43.5q-17 0 -33.5 -2.5t-42.5 -13.5t-45 -30.5t-34 -58t-17 -90.5zM395 1085l197 240h270l-280 -240h-187z" />
<glyph unicode="&#xea;" horiz-adv-x="1107" d="M84 459q0 70 13 136.5t46 135t84 119.5t134 83t188 32q133 0 223.5 -35.5t145.5 -113t78.5 -190.5t23.5 -278h-643q34 -170 203 -170q128 0 288 80l93 -213q-167 -74 -398 -74q-114 0 -206.5 39.5t-151 107t-90 155t-31.5 186.5zM281 1079l213 246h180l205 -246h-195 l-100 123l-107 -123h-196zM379 555h360q-10 108 -60 151.5t-128 43.5q-17 0 -33.5 -2.5t-42.5 -13.5t-45 -30.5t-34 -58t-17 -90.5z" />
<glyph unicode="&#xeb;" horiz-adv-x="1107" d="M84 459q0 70 13 136.5t46 135t84 119.5t134 83t188 32q133 0 223.5 -35.5t145.5 -113t78.5 -190.5t23.5 -278h-643q34 -170 203 -170q128 0 288 80l93 -213q-167 -74 -398 -74q-114 0 -206.5 39.5t-151 107t-90 155t-31.5 186.5zM287 1073v211h245v-211h-245zM379 555 h360q-10 108 -60 151.5t-128 43.5q-17 0 -33.5 -2.5t-42.5 -13.5t-45 -30.5t-34 -58t-17 -90.5zM621 1073v211h245v-211h-245z" />
<glyph unicode="&#xec;" horiz-adv-x="544" d="M43 1325h270l197 -240h-184zM174 0v936h279v-936h-279z" />
<glyph unicode="&#xed;" horiz-adv-x="544" d="M35 1085l196 240h271l-281 -240h-186zM133 0v936h279v-936h-279z" />
<glyph unicode="&#xee;" horiz-adv-x="544" d="M-27 1079l213 246h181l204 -246h-194l-101 123l-106 -123h-197zM133 0v936h279v-936h-279z" />
<glyph unicode="&#xef;" horiz-adv-x="544" d="M-16 1128v211h245v-211h-245zM133 0v936h279v-936h-279zM317 1128v211h246v-211h-246z" />
<glyph unicode="&#xf0;" d="M96 369q0 467 441 467q18 0 44.5 -4.5t64.5 -16.5t73 -39t55 -65q0 126 -54 214.5t-149 127.5l-151 -101l-189 111l95 63h-15q-59 0 -125 -12l-86 248h54q254 0 428 -57l112 81l183 -110l-101 -70q291 -182 291 -626q0 -617 -500 -617q-89 0 -173 28t-150.5 78.5 t-107 128.5t-40.5 171zM403 424q0 -13 1.5 -31.5t1.5 -23.5q0 -92 46 -133t113 -41q44 0 74.5 9.5t59 37t43 86.5t14.5 149q-24 62 -67 94.5t-126 32.5q-160 0 -160 -180z" />
<glyph unicode="&#xf1;" horiz-adv-x="1124" d="M104 936h261l41 -115q5 5 28 29.5t41 40t46 35.5t60.5 30.5t67.5 10.5q104 0 174 -27.5t106 -81.5t50 -117t14 -151v-590h-280v608q0 27 -1 41.5t-6.5 37.5t-17 35.5t-34.5 22t-56 9.5q-56 0 -98 -49.5t-88 -137.5v-567h-281v737q0 35 -4 67t-12.5 76t-10.5 56zM188 1112 q40 92 98 128t154 36q32 0 63 -15.5t51 -34.5t45.5 -34.5t47.5 -15.5q40 0 71 31.5t40 64.5l139 -68q-27 -84 -95.5 -132t-150.5 -48q-42 0 -77 15.5t-53 33.5t-40.5 33.5t-42.5 15.5q-81 0 -108 -75z" />
<glyph unicode="&#xf2;" horiz-adv-x="1140" d="M84 473q0 101 28 187.5t84.5 156.5t152.5 110t222 40q129 0 225 -38.5t151.5 -107.5t82.5 -155.5t27 -192.5q0 -82 -17 -155.5t-54.5 -138t-93 -110.5t-137.5 -73t-184 -27t-184.5 26.5t-138.5 73t-93.5 111t-54 137.5t-16.5 156zM297 1325h270l197 -240h-184zM371 473 q0 -291 200 -291q199 0 199 291q0 112 -24 174.5t-65 84.5t-110 22q-101 0 -150.5 -59.5t-49.5 -221.5z" />
<glyph unicode="&#xf3;" horiz-adv-x="1140" d="M84 473q0 101 28 187.5t84.5 156.5t152.5 110t222 40q129 0 225 -38.5t151.5 -107.5t82.5 -155.5t27 -192.5q0 -82 -17 -155.5t-54.5 -138t-93 -110.5t-137.5 -73t-184 -27t-184.5 26.5t-138.5 73t-93.5 111t-54 137.5t-16.5 156zM371 473q0 -291 200 -291q199 0 199 291 q0 112 -24 174.5t-65 84.5t-110 22q-101 0 -150.5 -59.5t-49.5 -221.5zM379 1085l196 240h271l-281 -240h-186z" />
<glyph unicode="&#xf4;" horiz-adv-x="1140" d="M84 473q0 101 28 187.5t84.5 156.5t152.5 110t222 40q129 0 225 -38.5t151.5 -107.5t82.5 -155.5t27 -192.5q0 -82 -17 -155.5t-54.5 -138t-93 -110.5t-137.5 -73t-184 -27t-184.5 26.5t-138.5 73t-93.5 111t-54 137.5t-16.5 156zM272 1079l213 246h181l204 -246h-194 l-101 123l-106 -123h-197zM371 473q0 -291 200 -291q199 0 199 291q0 112 -24 174.5t-65 84.5t-110 22q-101 0 -150.5 -59.5t-49.5 -221.5z" />
<glyph unicode="&#xf5;" horiz-adv-x="1140" d="M84 473q0 101 28 187.5t84.5 156.5t152.5 110t222 40q129 0 225 -38.5t151.5 -107.5t82.5 -155.5t27 -192.5q0 -82 -17 -155.5t-54.5 -138t-93 -110.5t-137.5 -73t-184 -27t-184.5 26.5t-138.5 73t-93.5 111t-54 137.5t-16.5 156zM205 1112q40 92 98 128t154 36 q32 0 63 -15.5t51 -34.5t45.5 -34.5t47.5 -15.5q40 0 70.5 31.5t39.5 64.5l139 -68q-27 -84 -95 -132t-150 -48q-42 0 -77 15.5t-53 33.5t-40.5 33.5t-42.5 15.5q-82 0 -109 -75zM371 473q0 -291 200 -291q199 0 199 291q0 112 -24 174.5t-65 84.5t-110 22 q-101 0 -150.5 -59.5t-49.5 -221.5z" />
<glyph unicode="&#xf6;" horiz-adv-x="1140" d="M84 473q0 101 28 187.5t84.5 156.5t152.5 110t222 40q129 0 225 -38.5t151.5 -107.5t82.5 -155.5t27 -192.5q0 -82 -17 -155.5t-54.5 -138t-93 -110.5t-137.5 -73t-184 -27t-184.5 26.5t-138.5 73t-93.5 111t-54 137.5t-16.5 156zM293 1073v211h246v-211h-246zM371 473 q0 -291 200 -291q199 0 199 291q0 112 -24 174.5t-65 84.5t-110 22q-101 0 -150.5 -59.5t-49.5 -221.5zM627 1073v211h245v-211h-245z" />
<glyph unicode="&#xf7;" d="M102 362v179h955v-179h-955zM434 8v254h289v-254h-289zM434 631v254h289v-254h-289z" />
<glyph unicode="&#xf8;" horiz-adv-x="1140" d="M35 86l104 119q-55 113 -55 268q0 101 28 187.5t84.5 156.5t152.5 110t222 40q144 0 236 -31l96 102l182 -178l-92 -102q64 -114 64 -285q0 -82 -17 -155.5t-54.5 -138t-93 -110.5t-137.5 -73t-184 -27q-143 0 -254 49l-98 -110zM365 446l284 314q-9 -1 -25.5 -2.5 t-29.5 -2.5t-23 -1q-101 0 -150.5 -59.5t-49.5 -221.5q0 -12 -6 -27zM481 197q43 -15 90 -15q199 0 199 291q0 29 2 43z" />
<glyph unicode="&#xf9;" horiz-adv-x="1110" d="M131 346v590h281v-608q0 -31 2.5 -50.5t12 -44.5t33 -38t60.5 -13q24 0 47 12.5t37.5 25.5t35.5 46t28.5 47t29.5 56v567h281v-737q0 -35 4 -67t12.5 -76t10.5 -56h-261l-40 115q-7 -6 -27.5 -29t-38.5 -40t-44.5 -36.5t-58.5 -30t-67 -10.5q-98 0 -166 28t-104.5 81 t-52 117.5t-15.5 150.5zM258 1325h270l197 -240h-184z" />
<glyph unicode="&#xfa;" horiz-adv-x="1110" d="M131 346v590h281v-608q0 -31 2.5 -50.5t12 -44.5t33 -38t60.5 -13q24 0 47 12.5t37.5 25.5t35.5 46t28.5 47t29.5 56v567h281v-737q0 -35 4 -67t12.5 -76t10.5 -56h-261l-40 115q-7 -6 -27.5 -29t-38.5 -40t-44.5 -36.5t-58.5 -30t-67 -10.5q-98 0 -166 28t-104.5 81 t-52 117.5t-15.5 150.5zM356 1085l197 240h270l-280 -240h-187z" />
<glyph unicode="&#xfb;" horiz-adv-x="1110" d="M131 346v590h281v-608q0 -31 2.5 -50.5t12 -44.5t33 -38t60.5 -13q24 0 47 12.5t37.5 25.5t35.5 46t28.5 47t29.5 56v567h281v-737q0 -35 4 -67t12.5 -76t10.5 -56h-261l-40 115q-7 -6 -27.5 -29t-38.5 -40t-44.5 -36.5t-58.5 -30t-67 -10.5q-98 0 -166 28t-104.5 81 t-52 117.5t-15.5 150.5zM244 1079l213 246h180l205 -246h-195l-100 123l-107 -123h-196z" />
<glyph unicode="&#xfc;" horiz-adv-x="1110" d="M131 346v590h281v-608q0 -31 2.5 -50.5t12 -44.5t33 -38t60.5 -13q24 0 47 12.5t37.5 25.5t35.5 46t28.5 47t29.5 56v567h281v-737q0 -35 4 -67t12.5 -76t10.5 -56h-261l-40 115q-7 -6 -27.5 -29t-38.5 -40t-44.5 -36.5t-58.5 -30t-67 -10.5q-98 0 -166 28t-104.5 81 t-52 117.5t-15.5 150.5zM264 1073v211h246v-211h-246zM598 1073v211h246v-211h-246z" />
<glyph unicode="&#xfd;" horiz-adv-x="1130" d="M70 936h299l192 -582l205 582h295l-412 -1086q-110 -295 -391 -389l-96 228q146 40 180 133l82 217zM317 1085l197 240h270l-280 -240h-187z" />
<glyph unicode="&#xfe;" horiz-adv-x="1128" d="M98 -371q10 77 21.5 319t11.5 339v1059h281v-525q50 67 106.5 105.5t132.5 38.5q83 0 149.5 -26.5t111.5 -72t75 -108.5t43.5 -134t13.5 -151q0 -102 -28 -192t-81 -159.5t-136.5 -110t-186.5 -40.5q-79 0 -132 37t-74 78l-48 -457h-260zM408 332q61 -146 155 -146 q195 0 195 283q0 70 -9.5 121.5t-24.5 81.5t-38 48t-45.5 24t-50.5 6q-18 0 -34.5 -6t-33.5 -22.5t-28 -27.5t-30 -41.5t-26.5 -43t-29.5 -50.5v-227z" />
<glyph unicode="&#xff;" d="M70 936h299l192 -582l205 582h295l-412 -1086q-110 -295 -391 -389l-96 228q146 40 180 133l82 217zM305 1067v211h246v-211h-246zM639 1067v211h246v-211h-246z" />
<glyph unicode="&#x152;" horiz-adv-x="2158" d="M117 657q0 120 21 221.5t70 190.5t123 151.5t186 98t253 35.5q125 0 231 -29h924v-240h-606q56 -156 70 -280h493v-240h-491q-11 -165 -70 -325h623v-240h-906q-112 -41 -270 -41q-145 0 -257.5 35t-186 95.5t-120.5 150t-67 191.5t-20 226zM438 657q0 -137 21 -228 t65.5 -140.5t102 -69.5t141.5 -20q167 0 235 105.5t68 352.5q0 175 -33 275.5t-97.5 141t-172.5 40.5q-81 0 -140 -23t-103 -75.5t-65.5 -141.5t-21.5 -217z" />
<glyph unicode="&#x153;" horiz-adv-x="1781" d="M84 473q0 101 28 187.5t84.5 156.5t152.5 110t222 40q207 0 342 -97q124 95 310 95q133 0 223.5 -35.5t145.5 -113t78.5 -190.5t23.5 -278h-643q34 -170 202 -170q129 0 289 80l92 -213q-167 -74 -397 -74q-189 0 -324 103q-137 -105 -342 -105q-102 0 -184.5 26.5 t-138.5 73t-93.5 111t-54 137.5t-16.5 156zM371 473q0 -291 200 -291q199 0 199 291q0 112 -24 174.5t-65 84.5t-110 22q-101 0 -150.5 -59.5t-49.5 -221.5zM1053 555h360q-17 195 -188 195q-17 0 -33.5 -2.5t-42.5 -13.5t-45 -30.5t-34 -58t-17 -90.5z" />
<glyph unicode="&#x178;" horiz-adv-x="1327" d="M27 1325h354l289 -463l291 463h339l-487 -729v-596h-311v588zM397 1454v215h242v-215h-242zM725 1454v215h244v-215h-244z" />
<glyph unicode="&#x2c6;" horiz-adv-x="544" d="M-27 1079l213 246h181l204 -246h-194l-101 123l-106 -123h-197z" />
<glyph unicode="&#x2dc;" horiz-adv-x="544" d="M-82 1112q40 92 98 128t154 36q32 0 63 -15.5t51 -34.5t45.5 -34.5t47.5 -15.5q40 0 70.5 31.5t39.5 64.5l140 -68q-27 -84 -95.5 -132t-150.5 -48q-42 0 -77 15.5t-53 33.5t-40.5 33.5t-42.5 15.5q-82 0 -109 -75z" />
<glyph unicode="&#x2000;" horiz-adv-x="855" />
<glyph unicode="&#x2001;" horiz-adv-x="1710" />
<glyph unicode="&#x2002;" horiz-adv-x="855" />
<glyph unicode="&#x2003;" horiz-adv-x="1710" />
<glyph unicode="&#x2004;" horiz-adv-x="570" />
<glyph unicode="&#x2005;" horiz-adv-x="427" />
<glyph unicode="&#x2006;" horiz-adv-x="285" />
<glyph unicode="&#x2007;" horiz-adv-x="285" />
<glyph unicode="&#x2008;" horiz-adv-x="213" />
<glyph unicode="&#x2009;" horiz-adv-x="342" />
<glyph unicode="&#x200a;" horiz-adv-x="95" />
<glyph unicode="&#x2010;" horiz-adv-x="741" d="M53 328v229h635v-229h-635z" />
<glyph unicode="&#x2011;" horiz-adv-x="741" d="M53 328v229h635v-229h-635z" />
<glyph unicode="&#x2012;" horiz-adv-x="741" d="M53 328v229h635v-229h-635z" />
<glyph unicode="&#x2013;" horiz-adv-x="1024" d="M-2 383v205h1028v-205h-1028z" />
<glyph unicode="&#x2014;" horiz-adv-x="2048" d="M-2 362v226h2052v-226h-2052z" />
<glyph unicode="&#x2018;" horiz-adv-x="579" d="M92 942l203 385h182l-174 -385h-211z" />
<glyph unicode="&#x2019;" horiz-adv-x="579" d="M88 942l176 385h211l-203 -385h-184z" />
<glyph unicode="&#x201a;" horiz-adv-x="579" d="M88 -180l176 385h211l-203 -385h-184z" />
<glyph unicode="&#x201c;" horiz-adv-x="886" d="M82 942l203 385h182l-174 -385h-211zM420 942l201 385h184l-174 -385h-211z" />
<glyph unicode="&#x201d;" horiz-adv-x="886" d="M82 942l174 385h211l-201 -385h-184zM422 942l174 385h209l-203 -385h-180z" />
<glyph unicode="&#x201e;" horiz-adv-x="886" d="M82 -180l174 385h211l-201 -385h-184zM422 -180l174 385h209l-203 -385h-180z" />
<glyph unicode="&#x2022;" d="M270 664q0 130 90.5 219.5t219.5 89.5t219 -90t90 -219q0 -130 -89.5 -221t-219.5 -91t-220 90.5t-90 221.5z" />
<glyph unicode="&#x2026;" horiz-adv-x="1740" d="M145 0v254h289v-254h-289zM725 0v254h289v-254h-289zM1305 0v254h290v-254h-290z" />
<glyph unicode="&#x202f;" horiz-adv-x="342" />
<glyph unicode="&#x2039;" horiz-adv-x="579" d="M86 553l190 373h254l-198 -369l196 -369h-252z" />
<glyph unicode="&#x203a;" horiz-adv-x="579" d="M80 926h254l190 -373l-190 -365h-252l197 369z" />
<glyph unicode="&#x205f;" horiz-adv-x="427" />
<glyph unicode="&#x20ac;" horiz-adv-x="1105" d="M-63 401l77 240h133v59h-210l77 240h162q105 414 602 414q199 0 363 -54l-82 -249q-153 63 -281 63q-114 0 -182 -41t-98 -133h520l-78 -240h-471v-59h451l-78 -240h-350q26 -109 90.5 -155.5t183.5 -46.5q33 0 66 5t72 18t60.5 21t70 28.5t61.5 25.5v-289 q-127 -49 -324 -49q-267 0 -412.5 113.5t-189.5 328.5h-233z" />
<glyph unicode="&#x2122;" horiz-adv-x="1918" d="M125 1196v129h608v-129h-213v-600h-182v600h-213zM823 596v729h310l174 -506l176 506h299v-729h-183v549l-198 -549h-203l-199 549v-549h-176z" />
<glyph unicode="&#xe000;" horiz-adv-x="931" d="M0 0v932h932v-932h-932z" />
<glyph unicode="&#xfb01;" horiz-adv-x="1200" d="M18 721v215h142v22q0 95 30.5 164.5t93 115.5t139.5 74.5t187 49.5l99 -227q-138 -16 -203.5 -57t-65.5 -130v-12h172v-215h-172v-721h-280v721h-142zM780 1104v221h293v-221h-293zM786 0v936h281v-936h-281z" />
<glyph unicode="&#xfb02;" horiz-adv-x="1200" d="M18 721v215h142v22q0 95 30.5 164.5t93 115.5t139.5 74.5t187 49.5l99 -227q-138 -16 -203.5 -57t-65.5 -130v-12h172v-215h-172v-721h-280v721h-142zM795 0v1346h280v-1346h-280z" />
</font>
</defs>
</svg>
